<?xml version="1.0" standalone="no"?>
<!DOCTYPE svg PUBLIC "-//W3C//DTD SVG 20010904//EN"
 "http://www.w3.org/TR/2001/REC-SVG-20010904/DTD/svg10.dtd">
<svg version="1.0" xmlns="http://www.w3.org/2000/svg"
 width="694.000000pt" height="694.000000pt" viewBox="0 0 694.000000 694.000000"
 preserveAspectRatio="xMidYMid meet">
<metadata>
Created by potrace 1.14, written by Peter Selinger 2001-2017
</metadata>
<g transform="translate(0.000000,694.000000) scale(0.100000,-0.100000)"
fill="#000000" stroke="none">
<path d="M1998 5505 c-2 -2 -33 -6 -70 -9 -37 -3 -106 -10 -155 -17 -48 -6
-94 -12 -100 -12 -7 0 -13 -4 -13 -9 0 -5 -4 -6 -10 -3 -5 3 -27 1 -47 -4 -21
-5 -54 -12 -73 -16 -38 -6 -63 -12 -67 -15 -2 -2 -6 -3 -10 -4 -5 -1 -33 -8
-63 -16 -30 -8 -58 -13 -62 -12 -5 1 -8 -3 -8 -9 0 -5 -4 -8 -9 -4 -5 3 -20 1
-33 -4 -28 -12 -61 -24 -68 -26 -26 -6 -87 -29 -95 -35 -5 -4 -25 -11 -42 -15
-18 -3 -33 -11 -33 -16 0 -6 -4 -8 -9 -4 -5 3 -12 1 -15 -4 -3 -5 -18 -12 -33
-16 -16 -3 -40 -19 -54 -35 l-26 -28 0 -1801 c0 -1960 -4 -1833 56 -1846 32
-7 111 13 111 27 0 5 5 6 10 3 6 -3 10 -1 10 4 0 6 3 10 8 9 7 -1 21 3 67 22
41 16 207 72 223 75 9 2 55 13 102 25 104 27 117 30 155 35 17 3 41 7 55 10
28 6 118 20 195 31 162 22 617 5 777 -30 25 -6 72 -13 132 -22 22 -3 48 -10
58 -15 10 -5 18 -8 18 -5 0 15 436 -114 528 -157 23 -11 53 -19 65 -19 12 0
69 21 126 46 57 25 110 46 117 46 8 0 14 5 14 11 0 5 4 8 9 4 5 -3 32 4 59 14
27 11 53 17 56 14 3 -4 6 -1 6 6 0 7 4 10 9 7 5 -3 33 2 62 11 67 20 117 32
209 49 14 2 36 7 50 9 73 15 83 16 250 34 84 9 458 7 505 -2 17 -3 55 -9 85
-12 30 -3 93 -12 140 -21 47 -8 101 -17 120 -20 19 -3 98 -21 175 -40 77 -20
147 -37 155 -39 35 -7 266 -88 277 -97 6 -5 33 -11 60 -13 42 -4 51 -1 71 22
l22 26 0 1793 c0 1318 -3 1800 -11 1818 -8 17 -32 33 -78 52 -70 28 -225 83
-252 89 -9 2 -47 12 -85 23 -67 19 -198 51 -239 58 -11 2 -42 8 -70 14 -27 6
-63 13 -80 15 -16 3 -52 9 -80 14 -27 5 -57 9 -65 9 -8 0 -28 2 -45 5 -154 28
-524 29 -740 2 -40 -5 -127 -18 -140 -20 -35 -8 -124 -26 -143 -30 -13 -2 -33
-7 -45 -11 -12 -4 -29 -9 -37 -10 -41 -6 -213 -56 -220 -63 -3 -4 -12 -8 -20
-10 -39 -9 -27 -4 -155 -56 -44 -18 -82 -30 -85 -26 -4 6 -182 68 -215 76 -5
1 -17 4 -25 7 -36 13 -130 39 -151 42 -13 2 -31 6 -39 9 -19 8 -189 45 -238
53 -20 3 -53 9 -72 14 -19 5 -57 11 -85 14 -59 7 -137 16 -185 22 -44 6 -447
13 -452 9z"/>
</g>
</svg>
